<svg preserveAspectRatio="none" overflow="visible" style="display: block;" width="32" height="32" viewBox="0 0 32 32" fill="none" xmlns="http://www.w3.org/2000/svg">
<g id="&#229;&#147;&#129;&#231;&#137;&#140;&#230;&#160;&#135;&#232;&#174;&#176; &#194;&#183; 32" clip-path="url(#clip0_0_4)">
<path id="Vector" d="M24.8125 0H7.1875C3.21795 0 0 3.21795 0 7.1875V24.8125C0 28.782 3.21795 32 7.1875 32H24.8125C28.782 32 32 28.782 32 24.8125V7.1875C32 3.21795 28.782 0 24.8125 0Z" fill="url(#paint0_linear_0_4)"/>
<path id="Vector_2" d="M24.4662 12.6313C25.3037 14.6484 25.4156 16.8936 24.7829 18.984C24.1501 21.0744 22.812 22.8806 20.9965 24.0948C19.181 25.3089 17.0006 25.8558 14.827 25.6422C12.6533 25.4285 10.6211 24.4676 9.07676 22.9232C7.53238 21.3789 6.57147 19.3466 6.35783 17.173C6.1442 14.9994 6.69107 12.819 7.90522 11.0035C9.11936 9.18804 10.9256 7.84985 13.016 7.21713C15.1064 6.5844 17.3516 6.6963 19.3687 7.53375C18.8209 7.83727 18.3578 8.27319 18.0217 8.8017C17.6856 9.33021 17.4872 9.93449 17.4447 10.5594C16.1785 10.1823 14.8228 10.2383 13.5921 10.7185C12.3613 11.1986 11.3259 12.0755 10.6496 13.2104C9.97327 14.3453 9.69478 15.6733 9.85817 16.9842C10.0216 18.2952 10.6175 19.5142 11.5516 20.4484C12.4858 21.3825 13.7048 21.9784 15.0158 22.1418C16.3267 22.3052 17.6547 22.0267 18.7896 21.3504C19.9245 20.6741 20.8014 19.6387 21.2815 18.4079C21.7617 17.1772 21.8177 15.8215 21.4406 14.5553C22.0655 14.5128 22.6698 14.3144 23.1983 13.9783C23.7268 13.6422 24.1627 13.1791 24.4662 12.6313Z" fill="url(#paint1_linear_0_4)"/>
<path id="Vector_3" d="M21.1859 13.6891C22.7738 13.6891 24.0609 12.4019 24.0609 10.8141C24.0609 9.22624 22.7738 7.93906 21.1859 7.93906C19.5981 7.93906 18.3109 9.22624 18.3109 10.8141C18.3109 12.4019 19.5981 13.6891 21.1859 13.6891Z" fill="#FFB23E"/>
</g>
<defs>
<linearGradient id="paint0_linear_0_4" x1="0" y1="0" x2="0" y2="32" gradientUnits="userSpaceOnUse">
<stop stop-color="#0E2A52"/>
<stop offset="1" stop-color="#2C6AA8"/>
</linearGradient>
<linearGradient id="paint1_linear_0_4" x1="22.0625" y1="9.9375" x2="10.3125" y2="21.6875" gradientUnits="userSpaceOnUse">
<stop stop-color="#FFD39A"/>
<stop offset="0.38" stop-color="#F6F1EA"/>
<stop offset="1" stop-color="#EEF4FB"/>
</linearGradient>
<clipPath id="clip0_0_4">
<rect width="32" height="32" fill="white"/>
</clipPath>
</defs>
</svg>
